<mxfile host="app.diagrams.net" modified="2023-05-27T16:42:27.216Z" agent="Mozilla/5.0 (Windows NT 10.0; Win64; x64) AppleWebKit/537.36 (KHTML, like Gecko) Chrome/113.0.0.0 Safari/537.36" version="21.3.4" etag="1NUIdJC3r6Tf1i22eZWm" type="github">
  <diagram name="Page-1" id="wy_oTDAj-X7E25DyA3dS">
    <mxGraphModel>
      <root>
        <mxCell id="0" />
        <mxCell id="1" parent="0" />
      </root>
    </mxGraphModel>
  </diagram>
</mxfile>
